<?xml version="1.0" encoding="UTF-8"?>
<svg width="23px" height="31px" viewBox="0 0 23 31" version="1.1" xmlns="http://www.w3.org/2000/svg" xmlns:xlink="http://www.w3.org/1999/xlink">
    <title>Combined Shape</title>
    <defs>
        <linearGradient x1="70.7671462%" y1="4.14000162%" x2="23.2376133%" y2="100%" id="linearGradient-1">
            <stop stop-color="#5191EC" offset="0%"></stop>
            <stop stop-color="#21935A" offset="100%"></stop>
        </linearGradient>
        <path d="M635.5,373.64 L635.9023,373.644545 C638.4217,373.702115 640.3996,374.3066 641.836,375.458 C643.348,376.67 644.104,378.38 644.104,380.588 C644.104,383.348 642.928,385.268 640.576,386.348 C642.112,386.828 643.318,387.668 644.194,388.868 C645.07,390.068 645.508,391.484 645.508,393.116 C645.508,395.636 644.686,397.58 643.042,398.948 C641.469478,400.256522 639.254673,400.939229 636.397584,400.996121 L636.004,401 L635.851953,401.000976 C637.794816,398.808468 639,395.921456 639,392.755 C639,391.22 638.698,389.619 638.08,388 C635.733,391.119 632.433,389.052 627.229,389.625 C626.623436,389.691749 626.043842,389.790453 625.491083,389.917986 L625.492,373.64 L635.5,373.64 Z M630.787,394.531 C629.1942,395.399601 627.357635,396.619065 625.491248,398.076929 L625.492192,396.356014 C627.564185,395.326708 629.510332,394.646853 630.787,394.531 Z M634.169811,377 C632.735849,377 631.566038,377.435897 630.660377,378.307692 C629.815094,379.121368 629.276618,380.247749 629.044948,381.686838 L629,382 L639,382 C638.899371,380.410256 638.433962,379.179487 637.603774,378.307692 C636.773585,377.435897 635.628931,377 634.169811,377 Z" id="path-2"></path>
        <filter x="-9.0%" y="-6.6%" width="118.0%" height="113.2%" filterUnits="objectBoundingBox" id="filter-3">
            <feMorphology radius="0.3" operator="dilate" in="SourceAlpha" result="shadowSpreadOuter1"></feMorphology>
            <feOffset dx="0" dy="0" in="shadowSpreadOuter1" result="shadowOffsetOuter1"></feOffset>
            <feGaussianBlur stdDeviation="0.5" in="shadowOffsetOuter1" result="shadowBlurOuter1"></feGaussianBlur>
            <feComposite in="shadowBlurOuter1" in2="SourceAlpha" operator="out" result="shadowBlurOuter1"></feComposite>
            <feColorMatrix values="0 0 0 0 1   0 0 0 0 1   0 0 0 0 1  0 0 0 0.5 0" type="matrix" in="shadowBlurOuter1"></feColorMatrix>
        </filter>
    </defs>
    <g id="Page-1" stroke="none" stroke-width="1" fill="none" fill-rule="evenodd">
        <g id="Desktop-HD" transform="translate(-624.000000, -372.000000)" fill-rule="nonzero">
            <g id="Combined-Shape">
                <use fill="black" fill-opacity="1" filter="url(#filter-3)" xlink:href="#path-2"></use>
                <path stroke="#FFFFFF" stroke-width="0.3" d="M635.503188,373.490034 C638.46876,373.553082 640.472838,374.173064 641.929817,375.34096 C643.476313,376.580612 644.254,378.328089 644.254,380.588 C644.254,381.999304 643.951038,383.194919 643.349913,384.176347 C642.803906,385.067787 642.011543,385.783853 640.970874,386.322381 C642.373879,386.827118 643.48821,387.646759 644.315153,388.779558 C645.209391,390.004542 645.658,391.449681 645.658,393.116 C645.658,395.687647 644.814448,397.668256 643.137945,399.063302 C641.543395,400.390154 639.299344,401.088369 636.40057,401.146091 C637.654711,398.749161 638.85,395.890824 638.85,392.755 C638.85,391.315955 638.581139,389.818349 638.032205,388.302657 C636.508985,390.141598 634.605314,390.012478 632.06104,389.810607 C630.664257,389.699781 629.072938,389.572875 627.245434,389.774097 C626.745183,389.829238 626.262829,389.906389 625.798875,390.00378 L625.341072,390.107851 L625.342008,373.49 L635.503188,373.490034 Z M634.169811,377.15 C632.779272,377.15 631.643219,377.569806 630.764404,378.41576 C629.966959,379.183385 629.454096,380.238265 629.176754,381.85 L629.176754,381.85 L638.838867,381.85 L638.808578,381.539757 C638.655623,380.21681 638.220342,379.172674 637.495147,378.411135 C636.69122,377.566917 635.58112,377.15 634.169811,377.15 Z M631.433158,394.358425 C631.236106,394.459921 631.044546,394.561407 630.858815,394.662691 C629.203204,395.565546 627.28334,396.849141 625.341079,398.385782 L625.341079,398.385782 L625.342243,396.26317 C627.465948,395.200293 629.467215,394.50015 630.773444,394.381614 C630.97531,394.363295 631.196004,394.355652 631.433158,394.358425 Z" fill="url(#linearGradient-1)" fill-rule="evenodd"></path>
            </g>
        </g>
    </g>
</svg>