<?xml version="1.0" encoding="UTF-8"?>
<svg width="34px" height="30px" viewBox="0 0 34 30" version="1.1" xmlns="http://www.w3.org/2000/svg" xmlns:xlink="http://www.w3.org/1999/xlink">
    <title>archive</title>
    <defs>
        <filter color-interpolation-filters="auto" id="filter-1">
            <feColorMatrix in="SourceGraphic" type="matrix" values="0 0 0 0 0.847000 0 0 0 0 0.847000 0 0 0 0 0.847000 0 0 0 1.000000 0"></feColorMatrix>
        </filter>
    </defs>
    <g id="Webview" stroke="none" stroke-width="1" fill="none" fill-rule="evenodd" stroke-linecap="round" stroke-linejoin="round">
        <g id="Creation" transform="translate(-40.000000, -559.000000)">
            <g id="archive" transform="translate(9.000000, 549.000000)" filter="url(#filter-1)">
                <g transform="translate(32.000000, 11.000000)">
                    <path d="M3.55555556,7 L28.4444444,7 M3.55555556,7 C1.59187556,7 0,5.4329975 0,3.5 C0,1.5670025 1.59187556,0 3.55555556,0 L28.4444444,0 C30.4081778,0 32,1.5670025 32,3.5 C32,5.4329975 30.4081778,7 28.4444444,7 M3.55555556,7 L3.55555556,24.5 C3.55555556,26.43305 5.14743111,28 7.11111111,28 L24.8888889,28 C26.8526222,28 28.4444444,26.43305 28.4444444,24.5 L28.4444444,7 M12.4444444,14 L19.5555556,14" id="Shape" stroke="#4A5568" stroke-width="2"></path>
                </g>
            </g>
        </g>
    </g>
</svg>